<svg width="35" height="44" viewBox="0 0 35 44" fill="none" xmlns="http://www.w3.org/2000/svg">
<path d="M3.8232 0.108109C3.5146 -0.0950206 3.12364 0.00118545 2.95639 0.287385C1.94429 2.01933 1.53193 3.42979 1.81495 4.82428C2.08388 6.14938 2.97321 7.36054 4.26048 8.75256C4.49637 9.00764 4.90589 9.02057 5.16798 8.76655C5.42365 8.51876 5.43708 8.10011 5.18272 7.82303C3.96996 6.50199 3.2939 5.54318 3.09526 4.56444C2.90781 3.6408 3.13679 2.60049 4.02063 1.05739C4.21686 0.7148 4.11664 0.301259 3.8232 0.108109Z" fill="#F16A23"/>
<path d="M24.8012 8.76655C24.5391 9.02057 24.1296 9.00764 23.8937 8.75256C22.6065 7.36054 21.7171 6.14938 21.4482 4.82428C21.1652 3.42979 21.5775 2.01933 22.5896 0.287386C22.7569 0.00118473 23.1478 -0.0950203 23.4564 0.108108C23.7499 0.301259 23.8501 0.7148 23.6539 1.05739C22.77 2.60049 22.541 3.6408 22.7285 4.56444C22.9271 5.54318 23.6032 6.50199 24.816 7.82304C25.0703 8.10011 25.0569 8.51876 24.8012 8.76655Z" fill="#F16A23"/>
<path d="M12.7729 2.14183C12.9402 1.85563 13.3311 1.75942 13.6397 1.96255C13.9332 2.1557 14.0334 2.56924 13.8372 2.91183C12.9533 4.45493 12.7243 5.49524 12.9118 6.41888C13.1104 7.39762 13.7865 8.35643 14.9993 9.67748C15.2536 9.95455 15.2402 10.3732 14.9845 10.621C14.7224 10.875 14.3129 10.8621 14.077 10.607C12.7897 9.21498 11.9004 8.00382 11.6315 6.67872C11.3485 5.28424 11.7608 3.87377 12.7729 2.14183Z" fill="#F16A23"/>
<path fill-rule="evenodd" clip-rule="evenodd" d="M1.04411 13C0.512094 13 0.0745703 13.4129 0.0563336 13.9446C-0.0212902 16.2078 -0.131593 22.0453 0.594979 26C1.40581 30.4133 4.00143 36.5233 4.83477 38.417C4.99238 38.7751 5.34594 39 5.73723 39H22.4527C22.844 39 23.1976 38.7751 23.3552 38.417C23.7202 37.5875 24.4233 35.9491 25.1665 33.9986C30.6125 33.9097 35 29.4672 35 24V22C35 19.2386 32.7614 17 30 17H28.1896C28.1861 15.7383 28.1582 14.6619 28.1336 13.9446C28.1154 13.4129 27.6779 13 27.1459 13H1.04411ZM33 24C33 28.1082 29.9034 31.4931 25.9171 31.948C26.6147 29.9549 27.2585 27.8313 27.595 26C27.9767 23.9226 28.1274 21.3255 28.1733 19H30C31.6569 19 33 20.3431 33 22V24Z" fill="#F16A23"/>
<path d="M1.5 41C0.671573 41 1.05923e-07 41.6716 1.05923e-07 42.5C1.05923e-07 43.3284 0.671572 44 1.5 44H26.5C27.3284 44 28 43.3284 28 42.5C28 41.6716 27.3284 41 26.5 41H1.5Z" fill="#F16A23"/>
</svg>
