<svg width="24" height="25" viewBox="0 0 24 25" fill="none" xmlns="http://www.w3.org/2000/svg">
<path d="M8.39124 5.94428C9.3121 5.02342 10.7872 4.55304 12 4.55304C12.8205 4.55304 13.492 4.66839 14.0809 4.91625C14.6721 5.16509 15.1303 5.52665 15.5479 5.94428C16.4176 6.81398 17 8.01528 17 9.30304V14.553H18.25C18.6642 14.553 19 14.8888 19 15.303C19 15.7173 18.6642 16.053 18.25 16.053H5.75C5.33579 16.053 5 15.7173 5 15.303C5 14.8888 5.33579 14.553 5.75 14.553H7V9.30304C7 8.04326 7.50045 6.83508 8.39124 5.94428Z" fill="#00b14f"/>
<path d="M12 19.553C11.3703 19.553 10.7547 19.3668 10.2309 19.0176C9.70709 18.6684 9.29858 18.1718 9.05727 17.5906C8.89845 17.2081 9.07983 16.7692 9.46238 16.6104C9.84494 16.4515 10.2838 16.6329 10.4426 17.0155C10.57 17.3222 10.7858 17.5847 11.063 17.7695C11.3402 17.9543 11.6662 18.053 12 18.053C12.3337 18.053 12.6597 17.9543 12.937 17.7695C13.2141 17.5847 13.4299 17.3222 13.5573 17.0155C13.7161 16.6329 14.155 16.4515 14.5375 16.6104C14.9201 16.7692 15.1014 17.2081 14.9426 17.5906C14.7013 18.1718 14.2928 18.6684 13.769 19.0176C13.2452 19.3668 12.6296 19.553 12 19.553Z" fill="#00b14f"/>
<circle cx="7" cy="6" r="3.5" fill="#00b14f" stroke="white"/>
</svg>
