<svg width="16" height="17" viewBox="0 0 16 17" fill="none" xmlns="http://www.w3.org/2000/svg">
<g id="briefcase-02">
<path id="Icon" d="M5.33337 14.1064V4.77311C5.33337 4.15313 5.33337 3.84314 5.40152 3.58881C5.58646 2.89862 6.12555 2.35953 6.81574 2.17459C7.07007 2.10645 7.38006 2.10645 8.00004 2.10645C8.62002 2.10645 8.93001 2.10645 9.18435 2.17459C9.87453 2.35953 10.4136 2.89862 10.5986 3.58881C10.6667 3.84314 10.6667 4.15313 10.6667 4.77311V14.1064M3.46671 14.1064H12.5334C13.2801 14.1064 13.6535 14.1064 13.9387 13.9611C14.1896 13.8333 14.3936 13.6293 14.5214 13.3784C14.6667 13.0932 14.6667 12.7198 14.6667 11.9731V6.90645C14.6667 6.15971 14.6667 5.78634 14.5214 5.50112C14.3936 5.25024 14.1896 5.04627 13.9387 4.91844C13.6535 4.77311 13.2801 4.77311 12.5334 4.77311H3.46671C2.71997 4.77311 2.3466 4.77311 2.06139 4.91844C1.8105 5.04627 1.60653 5.25024 1.4787 5.50112C1.33337 5.78634 1.33337 6.15971 1.33337 6.90645V11.9731C1.33337 12.7198 1.33337 13.0932 1.4787 13.3784C1.60653 13.6293 1.8105 13.8333 2.06139 13.9611C2.3466 14.1064 2.71997 14.1064 3.46671 14.1064Z" stroke="black" stroke-opacity="0.5" stroke-linecap="round" stroke-linejoin="round"/>
</g>
</svg>
