<svg width="16" height="17" viewBox="0 0 16 17" fill="none" xmlns="http://www.w3.org/2000/svg">
<g id="building-07">
<path id="Icon" d="M5.00004 7.43978H3.06671C2.69334 7.43978 2.50665 7.43978 2.36405 7.51244C2.23861 7.57636 2.13662 7.67834 2.0727 7.80378C2.00004 7.94639 2.00004 8.13308 2.00004 8.50645V14.1064M11 7.43978H12.9334C13.3067 7.43978 13.4934 7.43978 13.636 7.51244C13.7615 7.57636 13.8635 7.67834 13.9274 7.80378C14 7.94639 14 8.13308 14 8.50645V14.1064M11 14.1064V4.23978C11 3.49304 11 3.11967 10.8547 2.83446C10.7269 2.58358 10.5229 2.3796 10.272 2.25177C9.98681 2.10645 9.61344 2.10645 8.86671 2.10645H7.13337C6.38664 2.10645 6.01327 2.10645 5.72805 2.25177C5.47717 2.3796 5.2732 2.58358 5.14537 2.83446C5.00004 3.11967 5.00004 3.49304 5.00004 4.23978V14.1064M14.6667 14.1064H1.33337M7.33337 4.77311H8.66671M7.33337 7.43978H8.66671M7.33337 10.1064H8.66671" stroke="#00b14f" stroke-linecap="round" stroke-linejoin="round"/>
</g>
</svg>
