<svg width="34" height="30" viewBox="0 0 34 30" fill="none" xmlns="http://www.w3.org/2000/svg">
<path d="M25 9.5H25.76C28.654 9.5 31 11.846 31 14.74V27H32.5C33.3284 27 34 27.6716 34 28.5C34 29.3284 33.3284 30 32.5 30H25V9.5Z" fill="#F16A23"/>
<path fill-rule="evenodd" clip-rule="evenodd" d="M23 5.5C23 2.46243 20.5376 0 17.5 0H8.5C5.46243 0 3 2.46243 3 5.5V27H1.5C0.671573 27 0 27.6716 0 28.5C0 29.3284 0.671573 30 1.5 30H11.5L11.5 23.5C11.5 22.6716 12.1716 22 13 22C13.8284 22 14.5 22.6716 14.5 23.5L14.5 30H23V5.5ZM9 7.5C9 6.67157 9.67157 6 10.5 6H15.5C16.3284 6 17 6.67157 17 7.5C17 8.32843 16.3284 9 15.5 9H10.5C9.67157 9 9 8.32843 9 7.5ZM10.5 12C9.67157 12 9 12.6716 9 13.5C9 14.3284 9.67157 15 10.5 15H15.5C16.3284 15 17 14.3284 17 13.5C17 12.6716 16.3284 12 15.5 12H10.5Z" fill="#F16A23"/>
</svg>
