<svg width="16" height="17" viewBox="0 0 16 17" fill="none" xmlns="http://www.w3.org/2000/svg">
<g id="calendar-minus-01" clip-path="url(#clip0_2701_51271)">
<path id="Icon" d="M6 10.1061H10M14 5.43945H2M10.6667 1.43945V3.43945M5.33333 1.43945V3.43945M5.2 14.7728H10.8C11.9201 14.7728 12.4802 14.7728 12.908 14.5548C13.2843 14.3631 13.5903 14.0571 13.782 13.6808C14 13.2529 14 12.6929 14 11.5728V5.97279C14 4.85268 14 4.29263 13.782 3.86481C13.5903 3.48848 13.2843 3.18252 12.908 2.99077C12.4802 2.77279 11.9201 2.77279 10.8 2.77279H5.2C4.0799 2.77279 3.51984 2.77279 3.09202 2.99077C2.71569 3.18252 2.40973 3.48848 2.21799 3.86481C2 4.29263 2 4.85268 2 5.97279V11.5728C2 12.6929 2 13.2529 2.21799 13.6808C2.40973 14.0571 2.71569 14.3631 3.09202 14.5548C3.51984 14.7728 4.0799 14.7728 5.2 14.7728Z" stroke="black" stroke-opacity="0.5" stroke-linecap="round" stroke-linejoin="round"/>
</g>
<defs>
<clipPath id="clip0_2701_51271">
<rect width="16" height="16" fill="white" transform="translate(0 0.106445)"/>
</clipPath>
</defs>
</svg>
