<svg width="16" height="17" viewBox="0 0 16 17" fill="none" xmlns="http://www.w3.org/2000/svg">
<path d="M5.75 10.3564H10.25M14.75 5.10645H1.25M11 0.606445V2.85645M5 0.606445V2.85645M4.85 15.6064H11.15C12.4101 15.6064 13.0402 15.6064 13.5215 15.3612C13.9448 15.1455 14.289 14.8013 14.5048 14.3779C14.75 13.8966 14.75 13.2666 14.75 12.0064V5.70645C14.75 4.44633 14.75 3.81627 14.5048 3.33497C14.289 2.9116 13.9448 2.5674 13.5215 2.35168C13.0402 2.10645 12.4101 2.10645 11.15 2.10645H4.85C3.58988 2.10645 2.95982 2.10645 2.47852 2.35168C2.05516 2.5674 1.71095 2.9116 1.49524 3.33497C1.25 3.81627 1.25 4.44633 1.25 5.70645V12.0064C1.25 13.2666 1.25 13.8966 1.49524 14.3779C1.71095 14.8013 2.05516 15.1455 2.47852 15.3612C2.95982 15.6064 3.58988 15.6064 4.85 15.6064Z" stroke="black" stroke-linecap="round" stroke-linejoin="round"/>
</svg>
