<svg width="24" height="24" viewBox="0 0 24 24" fill="none" xmlns="http://www.w3.org/2000/svg">
<path d="M12.8865 4.52822C13.3792 4.07072 14.1455 4.08491 14.621 4.56033L16.4396 6.37893C16.915 6.85435 16.9292 7.62068 16.4717 8.11338L10.2995 14.7603C10.1576 14.9131 9.95849 15 9.74994 15H6.74994C6.33573 15 5.99994 14.6642 5.99994 14.25V11.25C5.99994 11.0414 6.08678 10.8423 6.2396 10.7004L12.8865 4.52822Z" fill="#00b14f"/>
<path d="M5.99994 17.25C5.99994 16.8357 6.33573 16.5 6.74994 16.5H17.2499C17.6642 16.5 17.9999 16.8357 17.9999 17.25C17.9999 17.6642 17.6642 18 17.2499 18H6.74994C6.33573 18 5.99994 17.6642 5.99994 17.25Z" fill="#00b14f"/>
</svg>
