<svg width="33" height="34" viewBox="0 0 33 34" fill="none" xmlns="http://www.w3.org/2000/svg">
<path d="M9.51934 14.1228H7.90644C7.68386 14.1228 7.50321 13.9531 7.50321 13.744V8.44098C7.50321 8.23189 7.68386 8.06219 7.90644 8.06219H9.51934C9.74192 8.06219 9.92257 8.23189 9.92257 8.44098V13.744C9.92257 13.9531 9.74192 14.1228 9.51934 14.1228Z" fill="#A0041E"/>
<path d="M6.01609 15.1063L16.5 5.25787L26.9838 15.1063V27.9851H6.01609V15.1063Z" fill="#FFE8B6"/>
<path d="M16.5 15.1061H17.3065V27.2273H16.5V15.1061Z" fill="#FFCC4D"/>
<path d="M26.9839 15.8638C26.7775 15.8638 26.571 15.7896 26.4137 15.6418L16.5 6.32897L6.58633 15.6418C6.27101 15.938 5.76133 15.938 5.44601 15.6418C5.13068 15.3456 5.13068 14.8668 5.44601 14.5706L15.9299 4.72216C16.2452 4.42595 16.7549 4.42595 17.0702 4.72216L27.5541 14.5706C27.8694 14.8668 27.8694 15.3456 27.5541 15.6418C27.3968 15.7896 27.1904 15.8638 26.9839 15.8638Z" fill="#66757F"/>
<path d="M16.5 15.8637C16.2935 15.8637 16.0871 15.7895 15.9298 15.6417C15.6145 15.3455 15.6145 14.8667 15.9298 14.5705L21.1717 9.64629C21.4871 9.35008 21.9967 9.35008 22.3121 9.64629C22.6274 9.9425 22.6274 10.4213 22.3121 10.7175L17.0701 15.6417C16.9129 15.7895 16.7064 15.8637 16.5 15.8637Z" fill="#66757F"/>
<path d="M10.0484 22.6819H13.2742V27.2274H10.0484V22.6819Z" fill="#C1694F"/>
<path d="M10.0484 15.864H13.2742V18.8943H10.0484V15.864ZM20.129 15.864H23.3548V18.8943H20.129V15.864ZM20.129 22.6821H23.3548V25.7124H20.129V22.6821Z" fill="#55ACEE"/>
<path d="M29 28.3636C29 28.9909 28.4581 29.5 27.7903 29.5H5.20968C4.54194 29.5 4 28.9909 4 28.3636C4 27.7363 4.54194 27.2272 5.20968 27.2272H27.7903C28.4581 27.2272 29 27.7363 29 28.3636Z" fill="#5C913B"/>
<rect x="0.25" y="0.75" width="32.5" height="32.5" stroke="black" stroke-opacity="0.1" stroke-width="0.5"/>
</svg>
