<svg width="16" height="12" viewBox="0 0 16 12" fill="none" xmlns="http://www.w3.org/2000/svg" >
<path d="M14.75 6.10645L5.75 6.10645M14.75 1.60645L5.75 1.60645M14.75 10.6064L5.75 10.6064M2.75 6.10645C2.75 6.52066 2.41421 6.85645 2 6.85645C1.58579 6.85645 1.25 6.52066 1.25 6.10645C1.25 5.69223 1.58579 5.35645 2 5.35645C2.41421 5.35645 2.75 5.69223 2.75 6.10645ZM2.75 1.60645C2.75 2.02066 2.41421 2.35645 2 2.35645C1.58579 2.35645 1.25 2.02066 1.25 1.60645C1.25 1.19223 1.58579 0.856445 2 0.856445C2.41421 0.856445 2.75 1.19223 2.75 1.60645ZM2.75 10.6064C2.75 11.0207 2.41421 11.3564 2 11.3564C1.58579 11.3564 1.25 11.0207 1.25 10.6064C1.25 10.1922 1.58579 9.85645 2 9.85645C2.41421 9.85645 2.75 10.1922 2.75 10.6064Z" stroke="black" stroke-linecap="round" stroke-linejoin="round"/>
</svg>
