<svg xmlns="http://www.w3.org/2000/svg" width="24" height="24" viewBox="0 0 24 24" fill="none">
  <path d="M12.0111 1.625C16.103 1.625 19.9043 4.90179 19.9043 9.03571C19.9043 11.7682 18.9811 13.7001 17.434 15.9524C15.707 18.4667 13.5018 20.8338 12.516 21.8515C12.2316 22.1451 11.7674 22.1451 11.483 21.8515C10.4972 20.8338 8.29202 18.4667 6.56496 15.9524C5.01787 13.7001 4.09473 11.7682 4.09473 9.03571C4.09473 4.90179 7.89588 1.625 11.9878 1.625" stroke="#182552" stroke-width="1.5" stroke-linecap="round"/>
  <path d="M14.9637 9.47235C14.9637 11.1256 13.6409 12.4928 12.0041 12.4928C10.3673 12.4928 9.03516 11.1256 9.03516 9.47235C9.03516 7.81912 10.3673 6.56542 12.0041 6.56542C13.6409 6.56542 14.9637 7.81912 14.9637 9.47235Z" stroke="#182552" stroke-width="1.5"/>
</svg>
