<svg width="28" height="28" viewBox="0 0 28 28" fill="none" xmlns="http://www.w3.org/2000/svg">
<path fill-rule="evenodd" clip-rule="evenodd" d="M13.9998 0.666504C6.63984 0.666504 0.666504 6.63984 0.666504 13.9998C0.666504 21.3598 6.63984 27.3332 13.9998 27.3332C21.3598 27.3332 27.3332 21.3598 27.3332 13.9998C27.3332 6.63984 21.3598 0.666504 13.9998 0.666504ZM13.9998 15.3332C13.2665 15.3332 12.6665 14.7332 12.6665 13.9998V8.6665C12.6665 7.93317 13.2665 7.33317 13.9998 7.33317C14.7332 7.33317 15.3332 7.93317 15.3332 8.6665V13.9998C15.3332 14.7332 14.7332 15.3332 13.9998 15.3332ZM15.3332 20.6665H12.6665V17.9998H15.3332V20.6665Z" fill="#F16A23"/>
</svg>
