<svg width="16" height="16" viewBox="0 0 16 16" fill="none" xmlns="http://www.w3.org/2000/svg">
  <path fill-rule="evenodd" clip-rule="evenodd" d="M6.75001 0.5C6.51986 0.5 6.30246 0.605666 6.16027 0.786634L0.660267 7.78663C0.425711 8.08516 0.451222 8.51188 0.719676 8.78033L7.21968 15.2803C7.48813 15.5488 7.91485 15.5743 8.21337 15.3397L15.2134 9.83974C15.3943 9.69755 15.5 9.48015 15.5 9.25V1.25C15.5 0.835786 15.1642 0.5 14.75 0.5H6.75001ZM10.25 7.75C11.3546 7.75 12.25 6.85457 12.25 5.75C12.25 4.64543 11.3546 3.75 10.25 3.75C9.14543 3.75 8.25 4.64543 8.25 5.75C8.25 6.85457 9.14543 7.75 10.25 7.75Z" fill="#00b14f"/>
</svg>
