<svg width="16" height="17" viewBox="0 0 16 17" fill="none" xmlns="http://www.w3.org/2000/svg">
<path d="M1.66636 6.10645H14.333M6.66636 2.10645L5.33302 6.10645L7.99969 13.7731L10.6664 6.10645L9.33302 2.10645M8.40941 13.6148L14.3818 6.44788C14.4831 6.32641 14.5337 6.26568 14.553 6.19789C14.5701 6.13812 14.5701 6.07477 14.553 6.015C14.5337 5.94721 14.4831 5.88648 14.3818 5.76501L11.4929 2.29835C11.4342 2.22781 11.4048 2.19254 11.3687 2.16718C11.3368 2.14472 11.3012 2.12803 11.2635 2.11789C11.221 2.10645 11.175 2.10645 11.0832 2.10645H4.91616C4.82434 2.10645 4.77843 2.10645 4.73588 2.11789C4.69819 2.12803 4.66257 2.14472 4.63064 2.16718C4.59461 2.19254 4.56522 2.22781 4.50644 2.29835L1.61755 5.76501C1.51633 5.88647 1.46572 5.94721 1.44638 6.015C1.42933 6.07477 1.42933 6.13812 1.44638 6.19789C1.46572 6.26568 1.51633 6.32641 1.61755 6.44788L7.58997 13.6148C7.73068 13.7836 7.80103 13.8681 7.88526 13.8988C7.95916 13.9258 8.04023 13.9258 8.11412 13.8988C8.19835 13.8681 8.26871 13.7836 8.40941 13.6148Z" stroke="white" stroke-linecap="round" stroke-linejoin="round"/>
</svg>
