<svg width="16" height="16" viewBox="0 0 16 16" fill="none" xmlns="http://www.w3.org/2000/svg">
<path d="M7.25 2.10645H4.85C3.58988 2.10645 2.95982 2.10645 2.47852 2.35168C2.05516 2.5674 1.71095 2.9116 1.49524 3.33497C1.25 3.81627 1.25 4.44633 1.25 5.70645V11.2564C1.25 12.5166 1.25 13.1466 1.49524 13.6279C1.71095 14.0513 2.05516 14.3955 2.47852 14.6112C2.95982 14.8564 3.58988 14.8564 4.85 14.8564H10.4C11.6601 14.8564 12.2902 14.8564 12.7715 14.6112C13.1948 14.3955 13.539 14.0513 13.7548 13.6279C14 13.1466 14 12.5166 14 11.2564V8.85645M8.75 11.8564H4.25M10.25 8.85645H4.25M14.091 2.01545C14.9697 2.89413 14.9697 4.31876 14.091 5.19744C13.2123 6.07612 11.7877 6.07612 10.909 5.19744C10.0303 4.31876 10.0303 2.89413 10.909 2.01545C11.7877 1.13678 13.2123 1.13678 14.091 2.01545Z" stroke="white" stroke-width="2" stroke-linecap="round" stroke-linejoin="round"/>
</svg>
