<svg width="96" height="96" viewBox="0 0 96 96" fill="none" xmlns="http://www.w3.org/2000/svg">
<g id="qr-code-02">
<path id="Icon" d="M26 26.4506H26.04M70 26.4506H70.04M26 69.5527H26.04M52 51.92H52.04M70 69.5527H70.04M68 83.2669H84V67.5935M56 65.6343V83.2669M84 55.8384H66M62.4 40.1649H77.6C79.8402 40.1649 80.9603 40.1649 81.816 39.7378C82.5686 39.3622 83.1805 38.7627 83.564 38.0254C84 37.1872 84 36.09 84 33.8955V19.0057C84 16.8112 84 15.714 83.564 14.8758C83.1805 14.1385 82.5686 13.5391 81.816 13.1634C80.9603 12.7363 79.8402 12.7363 77.6 12.7363H62.4C60.1598 12.7363 59.0397 12.7363 58.184 13.1634C57.4314 13.5391 56.8195 14.1385 56.436 14.8758C56 15.714 56 16.8112 56 19.0057V33.8955C56 36.09 56 37.1872 56.436 38.0254C56.8195 38.7627 57.4314 39.3622 58.184 39.7378C59.0397 40.1649 60.1598 40.1649 62.4 40.1649ZM18.4 40.1649H33.6C35.8402 40.1649 36.9603 40.1649 37.816 39.7378C38.5686 39.3622 39.1805 38.7627 39.564 38.0254C40 37.1872 40 36.09 40 33.8955V19.0057C40 16.8112 40 15.714 39.564 14.8758C39.1805 14.1385 38.5686 13.5391 37.816 13.1634C36.9603 12.7363 35.8402 12.7363 33.6 12.7363H18.4C16.1598 12.7363 15.0397 12.7363 14.184 13.1634C13.4314 13.5391 12.8195 14.1385 12.436 14.8758C12 15.714 12 16.8112 12 19.0057V33.8955C12 36.09 12 37.1872 12.436 38.0254C12.8195 38.7627 13.4314 39.3622 14.184 39.7378C15.0397 40.1649 16.1598 40.1649 18.4 40.1649ZM18.4 83.2669H33.6C35.8402 83.2669 36.9603 83.2669 37.816 82.8399C38.5686 82.4642 39.1805 81.8648 39.564 81.1275C40 80.2893 40 79.192 40 76.9975V62.1078C40 59.9133 40 58.816 39.564 57.9778C39.1805 57.2405 38.5686 56.6411 37.816 56.2654C36.9603 55.8384 35.8402 55.8384 33.6 55.8384H18.4C16.1598 55.8384 15.0397 55.8384 14.184 56.2654C13.4314 56.6411 12.8195 57.2405 12.436 57.9778C12 58.816 12 59.9133 12 62.1078V76.9975C12 79.192 12 80.2893 12.436 81.1275C12.8195 81.8648 13.4314 82.4642 14.184 82.8399C15.0397 83.2669 16.1598 83.2669 18.4 83.2669Z" stroke="black" stroke-width="7" stroke-linecap="round" stroke-linejoin="round"/>
</g>
</svg>
