<svg width="57" height="70" viewBox="0 0 57 70" fill="none" xmlns="http://www.w3.org/2000/svg">
<path d="M20.4445 48.3681C17.6187 47.3126 16.1838 44.1667 17.2393 41.3409L19.7872 34.5192C20.8427 31.6934 23.9885 30.2585 26.8144 31.314C27.8466 31.6879 37.6838 33.4305 40.2318 26.6089C41.5057 23.198 39.3689 18.5133 34.2527 16.6023C30.0898 15.0474 26.1571 17.4652 25.5201 19.1706C24.4646 21.9964 21.3188 23.4313 18.4929 22.3758C15.667 21.3204 14.2322 18.1745 15.2876 15.3487C18.3949 7.02969 28.8313 2.91739 38.0746 6.36986C51.7178 11.4657 53.0236 23.5784 49.8272 32.1362C47.1869 39.2051 41.2857 43.1574 33.2085 43.2634C31.4501 43.2887 29.7819 43.1243 28.3208 42.8895L27.4717 45.1628C26.4162 47.9887 23.2704 49.4235 20.4445 48.3681Z" fill="#F16A23"/>
<path d="M15.3483 62.0111C18.1739 63.0665 21.3201 61.6314 22.3754 58.8058C23.4308 55.9802 21.9958 52.834 19.1702 51.7786C16.3446 50.7232 13.1984 52.1583 12.143 54.9839C11.0876 57.8095 12.5227 60.9557 15.3483 62.0111Z" fill="#F16A23"/>
</svg>
