<svg width="70" height="14" viewBox="0 0 70 14" fill="none" xmlns="http://www.w3.org/2000/svg">
<mask id="mask0_93_24855" style="mask-type:alpha" maskUnits="userSpaceOnUse" x="0" y="0" width="14" height="14">
<rect width="14" height="14" fill="#D9D9D9"/>
</mask>
<g mask="url(#mask0_93_24855)">
<path d="M5.16234 10.3979L6.99984 9.28958L8.83734 10.4125L8.35609 8.3125L9.97484 6.9125L7.84567 6.72292L6.99984 4.73958L6.154 6.70833L4.02484 6.89792L5.64359 8.3125L5.16234 10.3979ZM3.39775 12.8333L4.34567 8.73542L1.1665 5.97917L5.3665 5.61458L6.99984 1.75L8.63317 5.61458L12.8332 5.97917L9.654 8.73542L10.6019 12.8333L6.99984 10.6604L3.39775 12.8333Z" fill="#FFD600"/>
</g>
<mask id="mask1_93_24855" style="mask-type:alpha" maskUnits="userSpaceOnUse" x="14" y="0" width="14" height="14">
<rect x="14" width="14" height="14" fill="#D9D9D9"/>
</mask>
<g mask="url(#mask1_93_24855)">
<path d="M19.1623 10.3979L20.9998 9.28958L22.8373 10.4125L22.3561 8.3125L23.9748 6.9125L21.8457 6.72292L20.9998 4.73958L20.154 6.70833L18.0248 6.89792L19.6436 8.3125L19.1623 10.3979ZM17.3978 12.8333L18.3457 8.73542L15.1665 5.97917L19.3665 5.61458L20.9998 1.75L22.6332 5.61458L26.8332 5.97917L23.654 8.73542L24.6019 12.8333L20.9998 10.6604L17.3978 12.8333Z" fill="#FFD600"/>
</g>
<mask id="mask2_93_24855" style="mask-type:alpha" maskUnits="userSpaceOnUse" x="28" y="0" width="14" height="14">
<rect x="28" width="14" height="14" fill="#D9D9D9"/>
</mask>
<g mask="url(#mask2_93_24855)">
<path d="M33.1623 10.3979L34.9998 9.28958L36.8373 10.4125L36.3561 8.3125L37.9748 6.9125L35.8457 6.72292L34.9998 4.73958L34.154 6.70833L32.0248 6.89792L33.6436 8.3125L33.1623 10.3979ZM31.3978 12.8333L32.3457 8.73542L29.1665 5.97917L33.3665 5.61458L34.9998 1.75L36.6332 5.61458L40.8332 5.97917L37.654 8.73542L38.6019 12.8333L34.9998 10.6604L31.3978 12.8333Z" fill="#FFD600"/>
</g>
<mask id="mask3_93_24855" style="mask-type:alpha" maskUnits="userSpaceOnUse" x="42" y="0" width="14" height="14">
<rect x="42" width="14" height="14" fill="#D9D9D9"/>
</mask>
<g mask="url(#mask3_93_24855)">
<path d="M47.1623 10.3979L48.9998 9.28958L50.8373 10.4125L50.3561 8.3125L51.9748 6.9125L49.8457 6.72292L48.9998 4.73958L48.154 6.70833L46.0248 6.89792L47.6436 8.3125L47.1623 10.3979ZM45.3978 12.8333L46.3457 8.73542L43.1665 5.97917L47.3665 5.61458L48.9998 1.75L50.6332 5.61458L54.8332 5.97917L51.654 8.73542L52.6019 12.8333L48.9998 10.6604L45.3978 12.8333Z" fill="#FFD600"/>
</g>
<mask id="mask4_93_24855" style="mask-type:alpha" maskUnits="userSpaceOnUse" x="56" y="0" width="14" height="14">
<rect x="56" width="14" height="14" fill="#D9D9D9"/>
</mask>
<g mask="url(#mask4_93_24855)">
<path d="M61.1623 10.3979L62.9998 9.28958L64.8373 10.4125L64.3561 8.3125L65.9748 6.9125L63.8457 6.72292L62.9998 4.73958L62.154 6.70833L60.0248 6.89792L61.6436 8.3125L61.1623 10.3979ZM59.3978 12.8333L60.3457 8.73542L57.1665 5.97917L61.3665 5.61458L62.9998 1.75L64.6332 5.61458L68.8332 5.97917L65.654 8.73542L66.6019 12.8333L62.9998 10.6604L59.3978 12.8333Z" fill="#FFD600"/>
</g>
</svg>
