<svg width="18" height="19" viewBox="0 0 18 19" fill="none" xmlns="http://www.w3.org/2000/svg">
<g id="bar-chart-square-02">
<path id="Icon" d="M6 11.3555V12.8555M9 8.35547V12.8555M12 5.35547V12.8555M5.85 15.8555H12.15C13.4101 15.8555 14.0402 15.8555 14.5215 15.6102C14.9448 15.3945 15.289 15.0503 15.5048 14.6269C15.75 14.1456 15.75 13.5156 15.75 12.2555V5.95547C15.75 4.69535 15.75 4.06529 15.5048 3.58399C15.289 3.16063 14.9448 2.81642 14.5215 2.6007C14.0402 2.35547 13.4101 2.35547 12.15 2.35547H5.85C4.58988 2.35547 3.95982 2.35547 3.47852 2.6007C3.05516 2.81642 2.71095 3.16063 2.49524 3.58399C2.25 4.06529 2.25 4.69535 2.25 5.95547V12.2555C2.25 13.5156 2.25 14.1456 2.49524 14.6269C2.71095 15.0503 3.05516 15.3945 3.47852 15.6102C3.95982 15.8555 4.58988 15.8555 5.85 15.8555Z" stroke="black" stroke-linecap="round" stroke-linejoin="round"/>
</g>
</svg>
