<svg width="44" height="54" viewBox="0 0 44 54" fill="none" xmlns="http://www.w3.org/2000/svg">
<path d="M42.7949 6.95508L22.8848 0.169922C22.6445 0.0878905 22.3223 0.046875 22 0.046875C21.6777 0.046875 21.3555 0.0878905 21.1152 0.169922L1.20508 6.95508C0.71875 7.11914 0.320312 7.68164 0.320312 8.19727V36.4629C0.320312 36.9785 0.654297 37.6582 1.05859 37.9805L21.2559 53.7187C21.4609 53.8769 21.7246 53.959 21.9941 53.959C22.2637 53.959 22.5332 53.8769 22.7324 53.7187L42.9297 37.9805C43.334 37.6641 43.668 36.9844 43.668 36.4629V8.19727C43.6797 7.68164 43.2812 7.125 42.7949 6.95508ZM28.7266 29.4609C25.8848 32.3027 21.5195 32.6953 18.2617 30.6387L13.7207 35.1797C13.6326 35.2669 13.5136 35.3159 13.3896 35.3159C13.2657 35.3159 13.1467 35.2669 13.0586 35.1797L11.0664 33.1875C10.9792 33.0994 10.9302 32.9804 10.9302 32.8564C10.9302 32.7325 10.9792 32.6135 11.0664 32.5254L15.6074 27.9844C13.5508 24.7207 13.9434 20.3613 16.7852 17.5195C20.084 14.2207 25.4277 14.2207 28.7266 17.5195C32.0254 20.8184 32.0254 26.1621 28.7266 29.4609ZM19.4371 26.8084C19.8717 27.2498 20.3893 27.6009 20.9602 27.8413C21.5311 28.0817 22.144 28.2067 22.7634 28.2091C23.3829 28.2115 23.9967 28.0913 24.5694 27.8553C25.1422 27.6193 25.6625 27.2724 26.1005 26.8343C26.5385 26.3963 26.8855 25.8759 27.1214 25.3031C27.3573 24.7303 27.4775 24.1165 27.475 23.4971C27.4725 22.8776 27.3475 22.2648 27.107 21.6939C26.8666 21.1231 26.5155 20.6054 26.074 20.1709C25.6394 19.7295 25.1218 19.3784 24.5509 19.138C23.98 18.8976 23.3672 18.7726 22.7477 18.7702C22.1283 18.7678 21.5145 18.888 20.9417 19.124C20.369 19.3599 19.8486 19.7069 19.4106 20.145C18.9726 20.583 18.6257 21.1034 18.3898 21.6762C18.1539 22.249 18.0337 22.8628 18.0361 23.4822C18.0386 24.1017 18.1637 24.7145 18.4041 25.2854C18.6446 25.8562 18.9956 26.3739 19.4371 26.8084Z" fill="#00b14f"/>
</svg>
