<svg width="44" height="44" viewBox="0 0 44 44" fill="none" xmlns="http://www.w3.org/2000/svg">
<path d="M-1.52588e-05 24.6935L14.1859 13.6531C18.8468 10.0257 25.415 10.3813 29.5167 14.483C33.6184 18.5847 33.9739 25.1528 30.3465 29.8137L19.3061 43.9996L16.5481 41.2416L19.6927 38.097C20.0735 37.7162 20.0735 37.0988 19.6927 36.718C19.3119 36.3372 18.6945 36.3372 18.3137 36.718L15.1691 39.8626L12.4111 37.1046L15.5557 33.96C15.9365 33.5792 15.9365 32.9618 15.5557 32.581C15.1749 32.2002 14.5575 32.2002 14.1767 32.581L11.0321 35.7256L8.27404 32.9676L11.4186 29.823C11.7994 29.4422 11.7995 28.8248 11.4186 28.444C11.0378 28.0632 10.4204 28.0632 10.0396 28.444L6.89503 31.5886L4.13701 28.8305L7.28162 25.6859C7.66242 25.3051 7.66242 24.6877 7.28162 24.3069C6.90081 23.9261 6.28341 23.9261 5.90261 24.3069L2.758 27.4515L-1.52588e-05 24.6935Z" fill="#F16A23"/>
<path fill-rule="evenodd" clip-rule="evenodd" d="M36.576 1.30693L28.6589 9.22402L34.7759 15.3411L42.693 7.42397C44.4133 5.70361 44.4386 2.93964 42.7495 1.25046C41.0603 -0.438711 38.2963 -0.413426 36.576 1.30693ZM38.3089 5.69069C39.0706 6.4523 40.3054 6.4523 41.067 5.69069C41.8286 4.92908 41.8286 3.69428 41.067 2.93267C40.3054 2.17106 39.0706 2.17106 38.3089 2.93267C37.5473 3.69428 37.5473 4.92908 38.3089 5.69069Z" fill="#F16A23"/>
</svg>
