<svg width="25" height="24" viewBox="0 0 25 24" fill="none" xmlns="http://www.w3.org/2000/svg">
<path d="M21.4971 14.1437H2.85691C2.73906 14.1437 2.64263 14.2401 2.64263 14.358V15.9651C2.64263 16.083 2.73906 16.1794 2.85691 16.1794H19.0676L15.2025 21.0812C15.0926 21.2205 15.1917 21.4294 15.3712 21.4294H17.3132C17.4444 21.4294 17.5676 21.3705 17.6507 21.266L22.1721 15.5312C22.6141 14.9687 22.215 14.1437 21.4971 14.1437ZM22.1426 7.82227H5.93191L9.79709 2.92048C9.90691 2.78119 9.80781 2.57227 9.62834 2.57227H7.68638C7.55513 2.57227 7.43191 2.63119 7.34888 2.73566L2.82745 8.47048C2.38548 9.03298 2.78459 9.85798 3.49977 9.85798H22.1426C22.2605 9.85798 22.3569 9.76155 22.3569 9.64369V8.03655C22.3569 7.91869 22.2605 7.82227 22.1426 7.82227Z" fill="black" fill-opacity="0.85"/>
</svg>
