<svg width="24" height="25" viewBox="0 0 24 25" fill="none" xmlns="http://www.w3.org/2000/svg">
<path d="M12.0992 6.05468C11.7054 6.04165 11.313 6.10631 10.9442 6.24496C10.5755 6.3836 10.2376 6.59353 9.94998 6.86274C9.66235 7.13195 9.43055 7.45518 9.26784 7.81397C9.10512 8.17277 9.01467 8.5601 9.00164 8.95385C8.98861 9.3476 9.05327 9.74006 9.19192 10.1088C9.33056 10.4776 9.54049 10.8154 9.8097 11.1031C10.0789 11.3907 10.4021 11.6225 10.7609 11.7852C11.1197 11.9479 11.5071 12.0384 11.9008 12.0514C12.2946 12.0644 12.687 11.9998 13.0558 11.8611C13.4245 11.7225 13.7624 11.5126 14.05 11.2433C14.3377 10.9741 14.5694 10.6509 14.7322 10.2921C14.8949 9.93331 14.9853 9.54598 14.9984 9.15223C15.0114 8.75848 14.9467 8.36602 14.8081 7.99726C14.6694 7.6285 14.4595 7.29065 14.1903 7.00302C13.9211 6.71538 13.5979 6.48359 13.2391 6.32088C12.8803 6.15816 12.4929 6.06771 12.0992 6.05468Z" fill="#00b14f"/>
<path d="M12 13.553C10.8887 13.553 9.80221 13.8818 8.87793 14.498C7.95362 15.1142 7.23296 15.9902 6.80732 17.0155C6.71124 17.2469 6.7371 17.511 6.87623 17.7195C7.01537 17.9279 7.24941 18.053 7.5 18.053L16.5 18.053C16.7506 18.053 16.9846 17.9279 17.1238 17.7195C17.2629 17.5111 17.2888 17.2469 17.1927 17.0155C16.7671 15.9902 16.0464 15.1142 15.1221 14.498C14.1978 13.8818 13.1113 13.553 12 13.553Z" fill="#00b14f"/>
</svg>
