<svg width="42" height="44" viewBox="0 0 42 44" fill="none" xmlns="http://www.w3.org/2000/svg">
<path d="M21 29C25.1136 29 28.8416 27.3429 31.5505 24.6624C32.3302 24.8825 33.1521 25 34 25C34.338 25 34.6717 24.9814 35 24.9451V36C35 36.5523 34.5523 37 34 37H8C7.44771 37 7 36.5523 7 36V24.9451C7.32833 24.9814 7.66199 25 8 25C8.84794 25 9.6698 24.8825 10.4495 24.6624C13.1584 27.3429 16.8864 29 21 29Z" fill="#F16A23"/>
<path d="M7 23.9381C3.05369 23.446 0 20.0796 0 16C0 11.5817 3.58172 8 8 8C8.11519 8 8.22981 8.00244 8.34382 8.00726C10.5893 3.27345 15.4124 0 21 0C26.5876 0 31.4107 3.27345 33.6562 8.00726C33.7702 8.00244 33.8848 8 34 8C38.4183 8 42 11.5817 42 16C42 19.866 39.2577 23.0915 35.6123 23.8375C35.4108 23.8787 35.2066 23.9123 35 23.9381C34.6724 23.979 34.3387 24 34 24C33.0393 24 32.1182 23.8307 31.2648 23.5202C28.7081 26.2757 25.0554 28 21 28C16.9446 28 13.2919 26.2757 10.7352 23.5202C9.8818 23.8307 8.96067 24 8 24C7.66134 24 7.3276 23.979 7 23.9381Z" fill="#F16A23"/>
<path d="M5 42C5 40.8954 5.89543 40 7 40H35C36.1046 40 37 40.8954 37 42C37 43.1046 36.1046 44 35 44H7C5.89543 44 5 43.1046 5 42Z" fill="#F16A23"/>
</svg>
